<svg id="Capa_1" enable-background="new 0 0 512 512" height="512" viewBox="0 0 512 512" width="512" xmlns="http://www.w3.org/2000/svg"><path d="m445.868 210 6.485-75h-256.353v175z" fill="#5b324c"/><path d="m256 512h163.759l6.484-75-270.243-100z" fill="#5b324c"/><g fill="#84354e"><path d="m85.757 437 6.484 75h163.759v-175z"/><path d="m256 135h-196.353l6.485 75 189.868 100z"/><path d="m256 210-100 113.5 100 113.5h170.243l19.625-227z"/></g><path d="m256 210h-189.868l19.625 227h170.243z" fill="#ad3950"/><path d="m443.274 0h-187.274l-100 105h296.353z" fill="#ffdb47"/><path d="m68.726 0-9.079 105h196.353v-105z" fill="#ffea90"/><path d="m481 75h-225l-50 45 50 45h225z" fill="#ffea90"/><path d="m31 75h225v90h-225z" fill="#fff8d9"/></svg>