<svg id="Capa_1" enable-background="new 0 0 512.001 512.001" height="512" viewBox="0 0 512.001 512.001" width="512" xmlns="http://www.w3.org/2000/svg"><path d="m240 193.755c0-22.396-7.017-43.15-18.965-60.195l-41.035-58.559-60-50-90 268.5 90 218.5h120z" fill="#56b1ff"/><path d="m60 75.001-41.035 58.559c-11.948 17.045-18.965 37.799-18.965 60.195v318.246h120v-487z" fill="#5fd4ff"/><path d="m210 193.755c0-15.487-4.679-30.348-13.533-42.979l-76.467-109.122s-60 296.224-60 296.224l60 144.123h90z" fill="#5fd4ff"/><path d="m43.53 150.78c-8.851 12.627-13.53 27.488-13.53 42.975v288.246h90v-440.347z" fill="#94e2ff"/><path d="m180 .001h-60l-40 37.5 40 37.5h60z" fill="#457be0"/><path d="m60 .001h60v75h-60z" fill="#4e8dff"/><path d="m225 272.001h-105l-30 15 30 15h105z" fill="#56b1ff"/><path d="m15 272.001h105v30h-105z" fill="#5fd4ff"/><path d="m225 212.001h-105l-30 15 30 15h105z" fill="#56b1ff"/><path d="m15 212.001h105v30h-105z" fill="#5fd4ff"/><path d="m225 362.001h-105l-30 15 30 15h105z" fill="#56b1ff"/><path d="m15 362.001h105v30h-105z" fill="#5fd4ff"/><path d="m225 422.001h-105l-30 15 30 15h105z" fill="#56b1ff"/><path d="m15 422.001h105v30h-105z" fill="#5fd4ff"/><path d="m496.986 512.001h-210.986v-154.377c0-4.633-1.095-9.272-3.167-13.416l-11.833-23.666v-168.541h241.001l-.016 168.542-11.832 23.665c-2.072 4.144-3.167 8.783-3.167 13.417z" fill="#5fd4ff"/><path d="m481.999 182.001h-180.999v45l90.493 50 90.502-50z" fill="#fff"/><path d="m316 392.001h150.986v90h-150.986z" fill="#94e2ff"/><path d="m301 227.001v86.459l8.666 17.332c4.144 8.287 6.334 17.566 6.334 26.833v34.377c0 24.853 20.147 45 45 45h60.986c24.853 0 45-20.147 45-45v-34.377c0-9.267 2.19-18.545 6.335-26.833l8.666-17.332.008-86.458h-180.995z" fill="#caf1ff"/></svg>