<svg height="512pt" viewBox="-83 0 512 512" width="512pt" xmlns="http://www.w3.org/2000/svg"><path d="m76.992188 77.933594-31.796876-47.933594h-45.195312v-30h61.296875l40.695313 61.347656zm0 0" fill="#f95a5a"/><path d="m275.882812 381.09375h-58.03125v-30h58.03125c22.351563 0 40.535157-18.183594 40.535157-40.53125v-59.925781c0-22.351563-18.183594-40.53125-40.535157-40.53125h-30.710937v-30h30.710937c38.894532 0 70.535157 31.640625 70.535157 70.53125v59.925781c0 38.890625-31.640625 70.53125-70.535157 70.53125zm0 0" fill="#d7e9fe"/><path d="m262.109375 136.671875c0-9.726563-.3125-27.996094-.34375-29.816406l-215.089844-.011719c-.035156 1.917969-.382812 20.117188-.382812 29.828125 0 63.417969 7.210937 132.28125 20.304687 193.90625 11.167969 52.582031 25.359375 94.90625 40.417969 120.898437h94.371094c15.058593-25.988281 29.25-68.316406 40.421875-120.898437 13.089844-61.625 20.300781-130.488281 20.300781-193.90625zm0 0" fill="#b57548"/><path d="m261.90625 154.328125c.121094-5.921875.203125-11.816406.203125-17.65625 0-9.726563-.3125-27.996094-.34375-29.816406l-215.089844-.011719c-.035156 1.917969-.382812 20.117188-.382812 29.828125 0 5.839844.082031 11.738281.203125 17.65625zm0 0" fill="#a0401a"/><path d="m261.765625 106.996094c0-.050782 0-.105469 0-.140625-.070313-25.140625-17.671875-46.238281-41.203125-51.667969-6.332031-31.027344-33.835938-54.4375-66.707031-54.4375-32.933594 0-60.476563 23.503906-66.742188 54.621094-23.140625 5.707031-40.367187 26.613281-40.4375 51.472656 0 .042969 0 .101562-.003906.15625h215.09375zm0 0" fill="#faecd9"/><path d="m107.015625 451.472656-38.414063 60.527344h171.203126l-38.417969-60.523438zm0 0" fill="#edf6ff"/><path d="m261.765625 106.855469-107.898437-.007813v344.628906h47.519531c15.058593-25.988281 29.25-68.316406 40.421875-120.898437 13.089844-61.625 20.300781-130.488281 20.300781-193.90625 0-9.726563-.3125-27.996094-.34375-29.816406zm0 0" fill="#a0401a"/><path d="m261.765625 106.855469-107.898437-.007813v47.484375h108.039062c.121094-5.921875.203125-11.820312.203125-17.660156 0-9.726563-.3125-27.996094-.34375-29.816406zm0 0" fill="#862a10"/><path d="m153.867188 106.996094h107.898437c0-.050782 0-.105469 0-.140625-.070313-25.140625-17.671875-46.238281-41.203125-51.667969-6.332031-31.023438-33.828125-54.433594-66.695312-54.4375zm0 0" fill="#f8d8b6"/><path d="m153.867188 512h85.9375l-38.417969-60.523438-47.519531-.003906zm0 0" fill="#d7e9fe"/></svg>