<svg height="512pt" viewBox="-35 0 512 512" width="512pt" xmlns="http://www.w3.org/2000/svg"><path d="m165.039062 209.933594c-41.433593 0-75.019531-33.585938-75.019531-75.015625 0-41.429688 33.585938-75.019531 75.019531-75.019531 41.429688 0 75.015626 33.589843 75.015626 75.019531 0 41.429687-33.585938 75.015625-75.015626 75.015625zm0 0" fill="#fdbf00"/><path d="m165.035156 179.925781c-24.816406 0-45.007812-20.191406-45.007812-45.007812 0-24.820313 20.191406-45.011719 45.007812-45.011719 24.820313 0 45.011719 20.191406 45.011719 45.011719 0 24.816406-20.191406 45.007812-45.011719 45.007812zm0 0" fill="#ffda2d"/><path d="m427.375 86.765625 15.441406-25.726563-101.738281-61.039062-87.4375 119.914062 16.417969 15.003907 20.839844-15.003907 58.179687-80.121093zm0 0" fill="#6aa9ff"/><path d="m362.78125 512h-227.75l9.601562-60.011719 35.40625-30.007812h150.035157l23.703125 30.007812c1.800781 14.101563 3.601562 28.503907 6 42.605469zm0 0" fill="#e0f4ff"/><path d="m359.78125 494.59375 3 17.40625h-107.726562v-90.019531h75.019531l23.703125 30.007812c1.800781 14.101563 3.601562 28.503907 6.003906 42.605469zm0 0" fill="#bbdcff"/><path d="m362.78125 119.914062-3 17.402344c-3.902344 24.308594-6.902344 48.3125-9.304688 72.617188l-20.402343 32.007812h-150.035157l-20.402343-32.007812c-2.402344-24.304688-5.402344-48.609375-9.304688-72.617188l-3-17.402344zm0 0" fill="#e0f4ff"/><path d="m330.074219 241.941406h-75.019531v-122.027344h107.726562l-3 17.402344c-3.902344 24.308594-6.902344 48.3125-9.304688 72.617188zm0 0" fill="#bbdcff"/><path d="m290.765625 119.914062-35.710937 48.609376-48.007813 67.414062-24.007813-20.003906 70.519532-96.019532zm0 0" fill="#6aa9ff"/><path d="m290.765625 119.914062-35.710937 48.609376v-48.609376zm0 0" fill="#4895ff"/><path d="m353.777344 451.988281h-209.144532l20.105469-123.328125c.597657-38.710937-1.503906-80.019531-5.101562-118.726562h190.839843c-7.800781 79.816406-6.898437 162.238281 3.300782 242.054687zm0 0" fill="#ffda2d"/><path d="m353.777344 451.988281h-98.71875v-242.054687h95.417968c-7.800781 79.816406-6.898437 162.238281 3.300782 242.054687zm0 0" fill="#fdbf00"/><path d="m240.054688 406.976562c0 57.914063-47.113282 105.023438-105.023438 105.023438-57.914062 0-105.023438-47.109375-105.023438-105.023438 0-57.914062 47.109376-105.023437 105.023438-105.023437 57.910156 0 105.023438 47.109375 105.023438 105.023437zm0 0" fill="#ffda2d"/><path d="m240.054688 406.976562c0 57.914063-47.113282 105.023438-105.023438 105.023438v-210.046875c57.910156 0 105.023438 47.109375 105.023438 105.023437zm0 0" fill="#fdbf00"/><path d="m135.03125 315.15625c-22.507812-43.507812-67.816406-73.214844-120.027344-73.214844h-15.003906v15.003906c0 74.414063 60.613281 135.027344 135.03125 135.027344h15v-15.003906c0-22.203125-5.398438-43.207031-15-61.8125zm0 0" fill="#9cdd05"/><path d="m150.03125 376.96875v15.003906h-15v-76.816406c9.601562 18.605469 15 39.609375 15 61.8125zm0 0" fill="#6b0"/></svg>